<svg width="64" height="64" viewBox="0 0 64 64" fill="none" xmlns="http://www.w3.org/2000/svg">
<g clip-path="url(#clip0_56_75)">
<path d="M31.3418 64.0625C31.1176 63.9068 30.8713 63.9673 30.652 63.9092C29.885 63.7062 29.2388 63.254 28.5372 62.917C26.1513 61.7709 23.6269 61.0914 21.0194 60.7027C18.8326 60.3768 16.6319 60.2364 14.4206 60.2727C14.0163 60.2793 13.6153 60.3499 13.2071 60.2729C12.1952 60.0822 11.4946 59.2665 11.4912 58.2311C11.4861 56.6999 11.4833 55.1687 11.4955 53.6376C11.4977 53.3658 11.4115 53.235 11.1551 53.136C9.48215 52.49 8.49704 51.0423 8.49122 49.2505C8.48879 48.5005 8.50266 47.7503 8.48873 47.0006C8.46024 45.4679 9.12842 44.3207 10.3961 43.499C10.6492 43.3348 10.9063 43.1744 11.1736 43.0353C11.405 42.9149 11.4942 42.753 11.4932 42.4884C11.4846 40.3844 11.4982 38.2802 11.485 36.1762C11.4792 35.2587 11.7769 34.5054 12.5358 33.9636C12.6822 33.8591 12.7082 33.7347 12.7032 33.562C12.6828 32.8544 12.6423 32.1392 13.0233 31.4935C13.4645 30.7458 14.1251 30.3468 14.988 30.2964C16.0181 30.2362 17.0484 30.2827 18.0778 30.3232C18.2509 30.33 18.3774 30.2624 18.5087 30.1763C19.621 29.4473 20.8077 28.8756 22.0791 28.4806C23.0645 28.1745 24.0815 28.0065 25.0872 27.7904C26.167 27.5584 27.1189 26.692 27.0902 25.1082C27.0878 24.9741 27.016 24.8997 26.9193 24.8312C25.5934 23.8928 24.6231 22.6685 23.9859 21.1774C23.7148 20.543 23.513 19.8874 23.4228 19.2025C23.393 18.9761 23.3079 18.8679 23.068 18.8127C21.623 18.4805 20.6456 17.2559 20.6228 15.7716C20.6138 15.1884 20.6248 14.6049 20.6181 14.0217C20.6103 13.3349 20.7881 12.7034 21.1679 12.1323C21.2479 12.012 21.2693 11.8999 21.2631 11.7553C21.2444 11.3188 21.233 10.8802 21.2537 10.4441C21.2799 9.89457 21.7345 9.45749 22.238 9.45906C22.7701 9.46072 23.2282 9.924 23.2462 10.4935C23.2577 10.8577 23.2528 11.2225 23.2501 11.5871C23.2487 11.779 23.3014 11.9471 23.4828 12.0292C23.9262 12.23 24.3916 12.3686 24.8476 12.51C24.9611 12.381 24.9244 12.2497 24.9252 12.1303C24.9302 11.37 24.9261 10.6096 24.9298 9.84921C24.939 7.94852 26.3686 6.61012 28.2659 6.75468C28.9855 6.80951 29.607 7.13693 30.1123 7.64921C30.7712 8.31711 31.43 8.97897 32.2199 9.49945C33.5857 10.3994 35.0717 10.8534 36.7112 10.7345C37.1454 10.703 37.5736 10.5962 38.0065 10.5384C38.8448 10.4267 39.4868 10.7606 39.9639 11.437C40.1314 11.6744 40.2633 11.9347 40.561 12.0512C41.1026 12.2631 41.5025 12.0087 41.5032 11.4331C41.5054 9.68317 41.5066 7.93324 41.5036 6.18332C41.5024 5.46937 41.1841 5.13586 40.471 5.08174C39.3504 4.9967 38.5492 4.16328 38.434 2.96287C38.3743 2.34063 38.0243 2.00125 37.3932 2.00069C34.383 1.99799 31.3724 1.97573 28.3626 2.01617C26.0132 2.04775 23.8798 3.86697 23.3846 6.16612C23.2693 6.70156 22.8935 7.05371 22.4142 7.07549C21.9746 7.09546 21.5414 6.77734 21.4151 6.32324C21.3079 5.93775 21.4646 5.57457 21.5815 5.22758C22.4718 2.58461 24.2846 0.919343 26.9752 0.20258C27.1555 0.154536 27.3505 0.174857 27.5423 0.0743509C31.0638 0.0625 34.5651 0.0625 38.0957 0.0625C38.377 0.208487 38.671 0.253199 38.9219 0.407703C39.7282 0.904271 40.2441 1.59579 40.3936 2.54255C40.4098 2.64537 40.4296 2.74781 40.441 2.85116C40.4601 3.02405 40.5483 3.10766 40.7267 3.11289C42.1151 3.15359 43.5333 4.4448 43.5017 6.20573C43.4721 7.86127 43.4953 9.51775 43.4937 11.1738C43.4934 11.5382 43.4818 11.9018 43.3955 12.2593C43.3764 12.3381 43.374 12.4267 43.3874 12.5068C43.6065 13.8215 43.5036 15.1466 43.4781 16.4648C43.4563 17.5887 42.7386 18.4072 41.6487 18.7277C41.4743 18.779 41.4032 18.866 41.3731 19.0484C40.9387 21.68 39.6081 23.7293 37.3509 25.1589C37.1032 25.3157 37.0467 25.4834 37.0868 25.7496C37.2557 26.8716 38.1071 27.6597 39.3613 27.8659C41.5811 28.231 43.6943 28.8922 45.5819 30.1594C45.7552 30.2757 45.9326 30.3164 46.1392 30.313C47.0859 30.2977 48.0317 30.2606 48.9797 30.2837C50.3612 30.3175 51.3781 31.3096 51.3977 32.6948C51.3989 32.7781 51.4044 32.8621 51.3968 32.9447C51.3484 33.4702 51.4307 33.8936 51.9088 34.2664C52.4223 34.6668 52.6387 35.2911 52.6366 35.9627C52.6352 36.3897 52.6424 36.8169 52.6331 37.2438C52.6202 37.8362 52.1854 38.2733 51.6334 38.2626C51.1065 38.2524 50.6817 37.7979 50.6745 37.2299C50.6698 36.855 50.6788 36.4799 50.6721 36.1051C50.6642 35.6681 50.4727 35.4678 50.0429 35.4633C47.6247 35.4379 45.2164 35.5513 42.8234 35.9342C40.5223 36.3025 38.2942 36.9026 36.1383 37.803C35.3699 38.1238 35.1098 38.5299 35.1151 39.3855C35.1588 46.4053 35.141 53.4255 35.1432 60.4455C35.1433 60.5788 35.1233 60.7156 35.1812 60.8562C35.3483 60.9121 35.4817 60.8021 35.6139 60.7429C37.6519 59.8301 39.7966 59.2797 41.9856 58.9007C43.9975 58.5524 46.0286 58.3826 48.0722 58.3445C48.8424 58.3301 49.6121 58.2972 50.3822 58.3263C50.5831 58.3338 50.6714 58.2622 50.6712 58.0612C50.6702 56.5822 50.6705 55.1032 50.6745 53.6242C50.6751 53.4178 50.5569 53.3881 50.3912 53.3895C49.9329 53.3933 49.4735 53.3712 49.0166 53.3958C47.7419 53.4644 46.5806 52.4813 46.57 50.9961C46.5629 49.9972 46.5701 48.997 46.6133 47.9992C46.6778 46.5095 48.0685 45.1958 49.5646 45.1732C49.8041 45.1696 50.0443 45.1611 50.2831 45.1743C50.5653 45.1899 50.6749 45.073 50.6726 44.79C50.6642 43.7798 50.6735 42.7695 50.6685 41.7592C50.6671 41.4855 50.7389 41.2459 50.919 41.0407C51.198 40.7228 51.5858 40.6131 51.961 40.7432C52.3484 40.8775 52.6149 41.2228 52.6328 41.6352C52.6442 41.8951 52.6555 42.1576 52.6316 42.4157C52.6027 42.7263 52.7113 42.9119 52.9935 43.0597C53.5941 43.3743 54.1568 43.7475 54.6246 44.2524C55.2447 44.9217 55.6072 45.7033 55.6207 46.6144C55.6365 47.686 55.7128 48.7633 55.5818 49.8291C55.3838 51.4413 54.4613 52.524 52.9781 53.1343C52.7294 53.2366 52.6273 53.3438 52.6299 53.6233C52.6441 55.0917 52.6019 56.5614 52.6448 58.0287C52.684 59.3649 51.7035 60.4485 50.1856 60.3102C49.0191 60.204 47.8549 60.2888 46.6907 60.3438C45.1924 60.4146 43.7014 60.5741 42.2278 60.8499C39.6922 61.3244 37.2177 61.9996 34.9437 63.2659C34.2843 63.6331 33.6041 63.9297 32.8319 64.0494C32.332 64.0625 31.8515 64.0625 31.3418 64.0625ZM28.9867 49.4688C28.985 45.876 28.98 42.2832 28.9879 38.6905C28.9885 38.4102 28.8998 38.2645 28.6491 38.1403C26.8084 37.2279 24.8665 36.6232 22.8603 36.2144C19.9926 35.6301 17.0911 35.4217 14.1687 35.4603C13.6239 35.4674 13.4551 35.6303 13.4537 36.1665C13.4508 37.2495 13.4503 38.3325 13.4504 39.4155C13.4506 41.1858 13.4518 42.9562 13.4532 44.7265C13.4535 45.1306 13.4944 45.1704 13.9028 45.172C14.1007 45.1728 14.2986 45.1703 14.4964 45.1727C16.0604 45.1916 17.4261 46.4673 17.5065 48.032C17.5577 49.0283 17.5642 50.0283 17.552 51.0262C17.533 52.5777 16.2262 53.4771 15.1343 53.3958C14.689 53.3626 14.2387 53.4012 13.7915 53.3852C13.5289 53.3759 13.4487 53.4777 13.4501 53.7319C13.4578 55.1482 13.4577 56.5645 13.448 57.9807C13.446 58.2607 13.569 58.3592 13.8239 58.3419C14.5314 58.2937 15.2377 58.3396 15.945 58.3499C17.9259 58.3786 19.892 58.5442 21.8467 58.8612C24.0419 59.2171 26.1853 59.7571 28.2387 60.6283C28.4608 60.7226 28.668 60.8816 28.9867 60.8727C28.9867 57.0829 28.9867 53.3071 28.9867 49.4688ZM41.5022 14.4828C41.4923 14.3507 41.533 14.2126 41.4568 14.0837C41.4259 14.0789 41.3954 14.0673 41.3666 14.0707C40.0933 14.221 39.1089 13.7567 38.4193 12.6774C38.3133 12.5115 38.19 12.5082 38.0196 12.5474C37.0455 12.7712 36.0574 12.8032 35.0713 12.6753C33.4116 12.4599 31.9433 11.7745 30.6128 10.7765C29.9278 10.2627 29.314 9.67216 28.723 9.05343C28.3491 8.66192 27.8489 8.60762 27.4094 8.86354C27.0255 9.08704 26.8954 9.44804 26.8944 9.86712C26.8922 10.7834 26.8964 11.6996 26.8975 12.6159C26.8977 12.8764 26.8949 13.1354 26.7971 13.3847C26.403 14.389 25.4026 14.8266 24.3374 14.4547C23.7822 14.2609 23.2286 14.0626 22.6352 13.8525C22.6352 14.6056 22.5903 15.3136 22.6496 16.0127C22.6957 16.5561 23.142 16.8674 23.7012 16.8796C23.8781 16.8835 24.056 16.8728 24.2319 16.8878C24.8473 16.9403 25.2349 17.3541 25.2644 17.969C25.2733 18.1556 25.3019 18.3412 25.3216 18.5272C25.4616 19.8451 25.924 21.0408 26.7856 22.0466C28.9175 24.5353 32.5119 25.46 35.5918 23.893C37.4076 22.9691 38.6689 21.5788 39.2376 19.5994C39.3905 19.0674 39.4695 18.5237 39.4936 17.9696C39.5264 17.2109 39.9049 16.8569 40.658 16.8568C40.7309 16.8568 40.8038 16.8586 40.8767 16.857C41.322 16.8471 41.5035 16.6677 41.5046 16.2282C41.5059 15.666 41.5026 15.1038 41.5022 14.4828ZM33.2253 42.967C33.2253 41.7665 33.2253 40.566 33.2253 39.3129C32.4262 39.5298 31.708 39.5196 31.0108 39.3574C30.934 39.4495 30.945 39.5244 30.9438 39.5959C30.9282 40.5221 30.8972 41.4483 30.9004 42.3744C30.9148 46.476 30.871 50.5776 30.9245 54.6792C30.9549 57.0099 30.9388 59.3413 30.9285 61.6723C30.9274 61.9096 31.0232 61.9854 31.2161 62.0301C31.7304 62.1494 32.2425 62.151 32.7639 62.0591C33.0775 62.0039 33.1902 61.8733 33.1904 61.5442C33.1919 58.6301 33.2169 55.7161 33.2232 52.8021C33.2302 49.5441 33.2251 46.2862 33.2253 42.967ZM16.4687 32.2564C16.1771 32.2578 15.8855 32.2597 15.5939 32.2604C14.7136 32.2628 14.6812 32.3038 14.6887 33.173C14.6908 33.4209 14.7768 33.4989 15.017 33.4969C16.9032 33.4809 18.7802 33.607 20.6503 33.8575C22.9575 34.1666 25.2193 34.6582 27.4074 35.4658C28.6418 35.9214 29.8231 36.4849 30.9409 37.1791C31.6646 37.6285 32.39 37.6379 33.1237 37.21C33.4654 37.0107 33.8004 36.7991 34.1492 36.6133C36.1392 35.5536 38.2604 34.8719 40.4565 34.3854C43.1825 33.7815 45.9424 33.5359 48.7266 33.4924C49.518 33.4801 49.4327 33.6393 49.4285 32.7421C49.4271 32.4254 49.2636 32.2723 48.9397 32.2631C47.4704 32.2211 46.002 32.2704 44.5401 32.4049C42.6944 32.5747 40.8663 32.8605 39.0723 33.3501C37.2645 33.8436 35.5217 34.4892 33.9539 35.5296C32.6904 36.3682 31.4569 36.3835 30.197 35.5504C28.6077 34.4995 26.8525 33.8297 25.025 33.3352C22.2443 32.5827 19.4007 32.3154 16.4687 32.2564ZM36.0469 32.2619C38.0172 31.4859 40.0698 31.0216 42.1605 30.6542C42.0205 30.5634 41.879 30.5104 41.7362 30.4609C40.7193 30.1091 39.6533 29.9618 38.6131 29.7076C38.3393 29.6407 38.1605 29.7516 37.96 29.8947C36.495 30.9403 34.8636 31.5701 33.0699 31.689C30.6837 31.8473 28.5192 31.1869 26.6093 29.7386C26.3767 29.5622 26.1829 29.5325 25.9019 29.6141C24.853 29.9183 23.7571 30.0285 22.7138 30.3605C22.4567 30.4424 22.1822 30.4883 21.9358 30.6466C22.013 30.7265 22.0862 30.7309 22.1581 30.7395C22.8612 30.8239 23.5545 30.9624 24.2448 31.1177C26.7798 31.688 29.2094 32.5218 31.3927 33.9733C31.8643 34.2869 32.3222 34.2453 32.788 33.9342C33.7959 33.2613 34.8724 32.7177 36.0469 32.2619ZM10.4672 49.5536C10.6046 50.7184 11.5956 51.49 12.725 51.4342C13.4831 51.3966 14.2445 51.4252 15.0044 51.4235C15.4825 51.4224 15.5631 51.343 15.5678 50.8576C15.5757 50.0361 15.5867 49.2146 15.5857 48.3931C15.5848 47.6095 15.1024 47.1424 14.3082 47.139C14.0583 47.138 13.8081 47.1467 13.5587 47.1359C13.088 47.1154 12.6674 46.9638 12.3002 46.6567C11.8429 46.2742 11.5749 45.7869 11.4662 45.1679C10.793 45.5448 10.479 46.097 10.4655 46.8122C10.4486 47.7071 10.4626 48.6026 10.4672 49.5536ZM48.5574 50.9087C48.5908 51.3685 48.6474 51.4244 49.1049 51.4254C49.9065 51.4272 50.7081 51.4289 51.5097 51.4249C52.7575 51.4188 53.659 50.529 53.6713 49.2852C53.6792 48.4837 53.671 47.682 53.6725 46.8804C53.6729 46.616 53.6236 46.3605 53.5208 46.1199C53.3474 45.7138 53.1067 45.3649 52.6558 45.1909C52.6393 45.2554 52.6287 45.2947 52.6192 45.3343C52.342 46.4882 51.5184 47.1378 50.3289 47.1406C50.1103 47.1411 49.8913 47.1337 49.6731 47.1437C49.0671 47.1714 48.5936 47.5935 48.5768 48.1711C48.5507 49.0649 48.5609 49.9598 48.5574 50.9087ZM30.5763 26.4666C30.0574 26.3678 29.5609 26.1848 29.0457 26.0266C29.0132 26.111 28.9824 26.166 28.9707 26.2248C28.8457 26.8576 28.5827 27.4286 28.2156 27.9566C27.9623 28.3208 27.9653 28.3283 28.3501 28.5575C30.5683 29.8789 32.8825 30.1031 35.2912 29.1437C35.6703 28.9927 36.0484 28.8223 36.4046 28.5405C36.0895 28.2111 35.8447 27.8896 35.6457 27.536C35.4402 27.1711 35.2951 26.7815 35.1872 26.3781C35.1362 26.1875 35.0093 26.2442 34.8903 26.279C33.4856 26.6899 32.0652 26.7542 30.5763 26.4666Z" fill="#101B2C"/>
<path d="M44.7832 41.0293C45.698 40.8985 46.5928 40.8695 47.4851 40.819C48.0081 40.7894 48.4524 41.1914 48.5082 41.6813C48.5685 42.2097 48.2763 42.6279 47.7359 42.7652C47.2772 42.8818 46.8035 42.8287 46.3374 42.8609C44.5496 42.9841 42.7807 43.2366 41.0282 43.601C40.1732 43.7788 39.332 44.0178 38.4984 44.281C37.8742 44.4781 37.3173 44.2103 37.147 43.6419C36.9926 43.1266 37.3334 42.6034 37.9205 42.4127C39.1789 42.004 40.4616 41.6894 41.761 41.4538C42.752 41.2741 43.7479 41.1082 44.7832 41.0293Z" fill="#101B2C"/>
</g>
<defs>
<clipPath id="clip0_56_75">
<rect width="64" height="64" fill="white"/>
</clipPath>
</defs>
</svg>
