<svg width="64" height="64" viewBox="0 0 64 64" fill="none" xmlns="http://www.w3.org/2000/svg">
<g clip-path="url(#clip0_56_62)">
<path d="M19.3535 -0.017124C19.5065 -0.0177583 19.6595 -0.0183927 19.8171 -0.0190462C19.9877 -0.0191214 20.1584 -0.0191838 20.329 -0.0192347C20.5096 -0.0197365 20.6902 -0.0202913 20.8708 -0.0208947C21.3682 -0.0223915 21.8657 -0.0230967 22.3632 -0.0236673C22.8992 -0.0244114 23.4353 -0.0258628 23.9714 -0.0272036C25.2665 -0.03027 26.5617 -0.0320976 27.8569 -0.0337112C28.2227 -0.0341751 28.5884 -0.0346717 28.9541 -0.0351802C31.2247 -0.0383346 33.4952 -0.0410916 35.7657 -0.0426463C36.2917 -0.0430125 36.8178 -0.0433827 37.3438 -0.0437594C37.4745 -0.0438527 37.6052 -0.0439459 37.7399 -0.044042C39.8582 -0.045624 41.9765 -0.0497773 44.0948 -0.0549847C46.269 -0.0602856 48.4432 -0.063233 50.6173 -0.0638863C51.8383 -0.0643133 53.0593 -0.0657845 54.2802 -0.0698992C55.32 -0.0733974 56.3597 -0.074775 57.3995 -0.0733747C57.93 -0.0727259 58.4605 -0.0730904 58.991 -0.0761829C59.4769 -0.0789917 59.9627 -0.0789043 60.4485 -0.0765325C60.6241 -0.0761821 60.7997 -0.0768845 60.9752 -0.0787591C61.9614 -0.0886437 62.7485 -0.069839 63.5 0.625003C64.0687 1.34401 64.0769 1.98693 64.0625 2.88282C64.0644 3.00375 64.0664 3.12468 64.0683 3.24927C64.0642 3.99858 63.9929 4.42794 63.5 5C62.9302 5.53981 62.4095 5.75 61.625 5.75C61.6253 5.86697 61.6257 5.98394 61.626 6.10446C61.6344 8.95156 61.6405 11.7987 61.6444 14.6458C61.6463 16.0226 61.649 17.3995 61.6533 18.7763C61.657 19.9765 61.6594 21.1766 61.6603 22.3768C61.6608 23.0122 61.6619 23.6475 61.6646 24.2829C61.6672 24.8813 61.668 25.4796 61.6674 26.078C61.6675 26.2973 61.6682 26.5165 61.6697 26.7358C61.6716 27.036 61.6711 27.3361 61.6701 27.6363C61.6712 27.7224 61.6723 27.8085 61.6734 27.8972C61.6668 28.6187 61.5076 29.3088 61.0439 29.8779C60.9371 29.9616 60.9371 29.9616 60.8281 30.0469C60.7575 30.1046 60.687 30.1622 60.6142 30.2217C60.1142 30.5421 59.6722 30.6562 59.0816 30.6598C58.9493 30.6612 58.817 30.6626 58.6806 30.664C58.5368 30.6643 58.3929 30.6646 58.2447 30.6649C58.0922 30.6661 57.9397 30.6674 57.7826 30.6687C57.3656 30.6719 56.9485 30.674 56.5315 30.6756C56.0952 30.6775 55.659 30.6809 55.2227 30.6841C54.3971 30.6899 53.5715 30.6945 52.7459 30.6987C51.8057 30.7035 50.8656 30.7096 49.9254 30.7159C47.992 30.7288 46.0585 30.74 44.125 30.75C43.8717 31.3988 43.6202 32.0484 43.3704 32.6986C43.2852 32.9197 43.1995 33.1406 43.1132 33.3613C42.9894 33.6785 42.8673 33.9964 42.7456 34.3145C42.7067 34.413 42.6677 34.5116 42.6276 34.6132C42.5751 34.752 42.5751 34.752 42.5214 34.8937C42.4901 34.9747 42.4587 35.0558 42.4264 35.1393C42.3637 35.4268 42.4038 35.599 42.5 35.875C42.662 36.1173 42.662 36.1173 42.8594 36.3516C43.6672 37.4158 43.7503 38.2907 43.625 39.625C43.4365 40.3978 43.0067 40.9288 42.4756 41.5044C41.6596 42.3928 41.0915 43.1975 41.1315 44.4349C41.1385 45.253 41.026 46.0199 40.8805 46.8233C40.8545 46.9727 40.8284 47.1221 40.8016 47.276C40.7308 47.6811 40.6588 48.086 40.5861 48.4908C40.5254 48.8306 40.4654 49.1704 40.4055 49.5103C40.264 50.3127 40.1212 51.1148 39.9775 51.9168C39.8299 52.7408 39.6843 53.565 39.5396 54.3895C39.4147 55.101 39.2887 55.8123 39.1619 56.5234C39.0864 56.9465 39.0113 57.3698 38.9371 57.7932C38.8541 58.2654 38.7694 58.7372 38.6842 59.209C38.6603 59.3471 38.6364 59.4852 38.6117 59.6275C38.337 61.1261 37.8855 62.424 36.5864 63.3252C35.6177 63.8839 34.7861 64.037 33.6796 64.0343C33.5466 64.0349 33.4137 64.0356 33.2766 64.0363C32.831 64.0381 32.3854 64.0382 31.9398 64.0383C31.6203 64.0393 31.3008 64.0403 30.9813 64.0415C30.1132 64.0442 29.2452 64.0453 28.3772 64.0459C27.8348 64.0463 27.2924 64.0472 26.7501 64.0481C25.2473 64.0505 23.7446 64.0526 22.2418 64.0529C22.1457 64.0529 22.0496 64.053 21.9506 64.053C21.7558 64.053 21.561 64.0531 21.3662 64.0531C21.2695 64.0532 21.1728 64.0532 21.0732 64.0532C20.9763 64.0532 20.8795 64.0532 20.7798 64.0533C19.2113 64.0537 17.6429 64.0571 16.0744 64.0618C14.4627 64.0665 12.851 64.0689 11.2393 64.069C10.3349 64.0691 9.43059 64.0701 8.52624 64.0737C7.67547 64.0771 6.82477 64.0773 5.974 64.0753C5.66209 64.075 5.35017 64.0759 5.03827 64.0779C4.61173 64.0804 4.18536 64.0791 3.75883 64.0769C3.63604 64.0785 3.51325 64.0801 3.38674 64.0818C2.3878 64.0698 1.58655 63.7656 0.820296 63.1172C0.755843 63.0373 0.69139 62.9573 0.624984 62.875C0.557952 62.7951 0.490921 62.7152 0.421859 62.6328C0.055849 62.0838 -0.031823 61.6123 -0.0363323 60.9574C-0.0379272 60.7996 -0.0395222 60.6417 -0.0411655 60.4791C-0.0415482 60.3072 -0.0418264 60.1353 -0.0420085 59.9634C-0.0428135 59.7847 -0.0436547 59.606 -0.0445301 59.4273C-0.0460262 59.0521 -0.0464903 58.6769 -0.046342 58.3017C-0.0463219 57.9211 -0.0480339 57.5407 -0.051469 57.1602C-0.0903217 52.7943 0.674646 49.0837 3.78233 45.8401C5.09086 44.547 6.67515 43.5661 8.37498 42.875C8.28588 42.822 8.19677 42.769 8.10496 42.7144C6.39703 41.6684 5.30566 40.3104 4.80174 38.3384C4.58168 36.8997 4.7427 35.6071 5.24998 34.25C5.33284 34.0126 5.41565 33.7751 5.49647 33.5369C5.57314 33.3115 5.6522 33.0869 5.73143 32.8623C6.1975 31.355 6.17069 29.8362 6.18748 28.2734C6.22993 24.3458 6.22993 24.3458 6.8203 22.6406C6.85258 22.5467 6.88487 22.4528 6.91814 22.3561C8.04471 19.2316 10.2838 16.9431 13.2358 15.4844C15.8959 14.2343 19.2139 14.0696 22 15C22.8858 15.3222 23.7309 15.6984 24.5285 16.2022C24.6172 16.2581 24.7059 16.314 24.7973 16.3715C24.8642 16.4139 24.9311 16.4563 25 16.5C25.0004 16.4296 25.0009 16.3593 25.0014 16.2868C25.0066 15.5526 25.0153 14.8186 25.0259 14.0845C25.0294 13.8108 25.0321 13.537 25.0339 13.2632C25.0365 12.8691 25.0424 12.4751 25.0488 12.0811C25.049 11.9592 25.0491 11.8373 25.0493 11.7117C25.0646 10.9954 25.1407 10.5647 25.625 10C26.1659 9.52345 26.4557 9.35998 27.1705 9.35288C27.3808 9.35047 27.3808 9.35047 27.5954 9.34802C27.7476 9.34709 27.8998 9.34617 28.0566 9.34522C28.2906 9.3437 28.2906 9.3437 28.5294 9.34216C28.8602 9.34043 29.191 9.33905 29.5218 9.33811C29.9443 9.33673 30.3668 9.33243 30.7894 9.32746C31.1936 9.32339 31.5977 9.32284 32.0019 9.32178C32.1531 9.31959 32.3043 9.3174 32.4601 9.31515C33.2604 9.31721 33.7729 9.32441 34.375 9.875C34.9275 10.4872 35.0156 10.9034 35.0221 11.7164C35.0229 11.8014 35.0238 11.8864 35.0246 11.974C35.0271 12.2553 35.0285 12.5366 35.0298 12.8179C35.0303 12.9142 35.0308 13.0105 35.0313 13.1098C35.0339 13.6199 35.0357 14.13 35.0369 14.6402C35.0383 15.1654 35.0426 15.6906 35.0475 16.2158C35.0508 16.6211 35.0518 17.0263 35.0523 17.4316C35.0529 17.6251 35.0543 17.8186 35.0567 18.0121C35.0779 19.8996 35.0779 19.8996 34.5 20.75C33.8667 21.3524 33.3479 21.393 32.5063 21.3872C32.4098 21.387 32.3132 21.3869 32.2137 21.3867C31.9055 21.386 31.5973 21.3844 31.289 21.3828C31.08 21.3822 30.8709 21.3816 30.6618 21.3811C30.1496 21.3797 29.6373 21.3776 29.125 21.375C29.1889 21.5229 29.1889 21.5229 29.254 21.6737C29.5399 22.3455 29.8152 22.9946 29.9687 23.7109C29.9964 23.8352 30.0242 23.9594 30.0527 24.0874C30.2165 25.0225 30.2675 25.9425 30.272 26.8906C30.2749 27.1336 30.2779 27.3766 30.281 27.6196C30.2853 27.9958 30.289 28.372 30.2907 28.7482C30.3014 30.7387 30.469 32.5618 31.2734 34.4063C31.9409 35.9542 31.9738 37.6657 31.4077 39.2588C30.7346 40.8217 29.759 41.9492 28.25 42.75C28.1675 42.75 28.085 42.75 28 42.75C28 42.8325 28 42.915 28 43C28.0822 43.0103 28.1643 43.0206 28.249 43.0313C30.2557 43.5316 31.8444 45.0807 33.25 46.5C33.2859 46.3966 33.3218 46.2932 33.3588 46.1866C33.493 45.8016 33.6279 45.4167 33.7634 45.0321C33.8218 44.8659 33.8799 44.6995 33.9376 44.5331C34.0209 44.2932 34.1053 44.0538 34.1899 43.8145C34.2403 43.6704 34.2907 43.5264 34.3427 43.3781C34.4871 43.0311 34.6208 42.7754 34.875 42.5C34.9575 42.5 35.04 42.5 35.125 42.5C35.1463 42.4167 35.1675 42.3334 35.1894 42.2476C35.3821 41.5147 35.6108 40.8115 35.8799 40.1035C36.0065 39.7308 36.0897 39.3613 36.1719 38.9766C36.3461 38.2546 36.6237 37.7911 37.125 37.25C37.1999 37.1681 37.2748 37.0863 37.352 37.002C38.2236 36.0935 39.0917 35.1901 40.375 35C40.3962 34.8726 40.3962 34.8726 40.4179 34.7426C40.5146 34.3094 40.6589 33.9099 40.813 33.4937C40.8433 33.4113 40.8737 33.329 40.9049 33.2441C41.0013 32.9829 41.0983 32.7219 41.1953 32.4609C41.261 32.2831 41.3267 32.1053 41.3923 31.9275C41.5527 31.4932 41.7137 31.059 41.875 30.625C41.7683 30.6261 41.6616 30.6272 41.5518 30.6284C40.5457 30.6384 39.5397 30.646 38.5337 30.6509C38.0165 30.6535 37.4993 30.6571 36.9821 30.6627C36.4829 30.6682 35.9836 30.6711 35.4844 30.6724C35.294 30.6734 35.1037 30.6752 34.9134 30.6779C34.6464 30.6815 34.3797 30.682 34.1127 30.6818C33.9609 30.6829 33.809 30.684 33.6526 30.6851C33.1724 30.6134 32.9659 30.4641 32.625 30.125C32.5464 29.875 32.5464 29.875 32.5547 29.625C32.5545 29.5425 32.5544 29.46 32.5542 29.375C32.6595 29.0033 32.821 28.8626 33.125 28.625C33.4563 28.5782 33.7348 28.5615 34.0653 28.5682C34.1592 28.5682 34.2532 28.5681 34.35 28.568C34.6598 28.5684 34.9695 28.5723 35.2793 28.5762C35.4944 28.5771 35.7094 28.5778 35.9245 28.5783C36.4901 28.5802 37.0556 28.5851 37.6211 28.5907C38.1984 28.5958 38.7757 28.5981 39.353 28.6006C40.4854 28.6059 41.6177 28.6145 42.75 28.625C42.7724 28.5478 42.7948 28.4705 42.8179 28.391C43.0305 27.6688 43.2646 26.9599 43.5268 26.2544C43.5825 26.1044 43.5825 26.1044 43.6393 25.9514C43.7171 25.7426 43.7952 25.5339 43.8735 25.3253C43.9531 25.1123 44.032 24.8991 44.1102 24.6856C44.2241 24.3746 44.3401 24.0645 44.4565 23.7544C44.4911 23.6591 44.5256 23.5638 44.5611 23.4656C44.7497 22.9715 44.8921 22.6213 45.375 22.375C45.86 22.3144 46.1345 22.3039 46.5547 22.5625C46.8247 22.9946 46.8032 23.3832 46.75 23.875C46.6519 24.2573 46.5132 24.6181 46.3672 24.9844C46.3089 25.1362 46.3089 25.1362 46.2495 25.2912C46.1262 25.6114 46.0006 25.9307 45.875 26.25C45.7905 26.4682 45.7062 26.6865 45.6221 26.9048C45.4164 27.4372 45.2088 27.9688 45 28.5C46.8721 28.5029 48.7442 28.5051 50.6163 28.5065C51.4855 28.5071 52.3547 28.508 53.2239 28.5094C54.0619 28.5108 54.9 28.5115 55.738 28.5119C56.0585 28.5121 56.3791 28.5125 56.6996 28.5132C57.1468 28.5141 57.594 28.5143 58.0412 28.5142C58.1752 28.5146 58.3091 28.5151 58.4472 28.5156C58.5683 28.5154 58.6894 28.5152 58.8142 28.515C58.9731 28.5152 58.9731 28.5152 59.1351 28.5154C59.3761 28.5264 59.3761 28.5264 59.5 28.375C59.5137 28.0825 59.5194 27.7936 59.5198 27.501C59.5207 27.3626 59.5207 27.3626 59.5216 27.2214C59.5236 26.9089 59.5246 26.5964 59.5257 26.2839C59.5269 26.0574 59.5281 25.8308 59.5294 25.6043C59.5328 24.9954 59.5355 24.3866 59.538 23.7777C59.5404 23.2072 59.5435 22.6367 59.5466 22.0662C59.5552 20.3957 59.5627 18.7252 59.5703 17.0547C59.5883 13.3241 59.6064 9.5936 59.625 5.75C47.0437 5.75 34.4625 5.75 21.5 5.75C21.5 7.68875 21.5 9.6275 21.5 11.625C21 12.25 21 12.25 20.7031 12.375C20.2616 12.375 19.9976 12.2287 19.625 12C19.4739 11.6978 19.4849 11.5083 19.4858 11.1708C19.4858 11.0507 19.4858 10.9306 19.4858 10.8069C19.4865 10.6769 19.4871 10.547 19.4878 10.4131C19.488 10.2139 19.488 10.2139 19.4883 10.0106C19.489 9.58519 19.4906 9.15979 19.4922 8.73438C19.4928 8.44646 19.4934 8.15853 19.4939 7.87061C19.4953 7.16374 19.4974 6.45687 19.5 5.75C19.4243 5.74397 19.3486 5.73794 19.2706 5.73172C19.1705 5.72245 19.0704 5.71317 18.9673 5.70362C18.8684 5.69501 18.7695 5.68639 18.6676 5.67752C18.1765 5.58938 17.8404 5.35762 17.5 5C17.0355 4.31616 16.9208 3.68846 16.9375 2.875C16.9346 2.73337 16.9346 2.73337 16.9316 2.58887C16.937 1.81041 17.1406 1.12962 17.6853 0.554232C18.2359 0.0763313 18.6435 -0.0155639 19.3535 -0.017124ZM19 2.125C18.9844 2.35116 18.978 2.578 18.9765 2.80469C18.9748 2.92828 18.973 3.05187 18.9712 3.1792C18.9673 3.52073 18.9673 3.52073 19.25 3.75C19.568 3.78816 19.568 3.78816 19.9457 3.78181C20.0946 3.78254 20.2434 3.78327 20.3967 3.78402C20.6441 3.78331 20.6441 3.78331 20.8966 3.78259C21.0724 3.78297 21.2483 3.78345 21.4241 3.78404C21.9091 3.78533 22.394 3.78505 22.879 3.78452C23.4013 3.78421 23.9236 3.78533 24.446 3.78627C25.4699 3.78787 26.4938 3.78809 27.5177 3.7878C28.3496 3.78757 29.1814 3.78779 30.0132 3.78832C30.1314 3.7884 30.2496 3.78847 30.3714 3.78855C30.6115 3.7887 30.8515 3.78885 31.0916 3.789C33.3451 3.79037 35.5986 3.79009 37.8521 3.78933C39.916 3.78869 41.9798 3.79009 44.0437 3.79247C46.1605 3.79489 48.2773 3.79592 50.3941 3.79545C51.5835 3.79521 52.7728 3.79553 53.9622 3.79729C54.9746 3.79878 55.987 3.79896 56.9995 3.79744C57.5165 3.7967 58.0334 3.79658 58.5504 3.79807C59.0231 3.79942 59.4957 3.79905 59.9683 3.79729C60.2216 3.79679 60.4749 3.79816 60.7283 3.79957C60.9515 3.79822 60.9515 3.79822 61.1792 3.79684C61.3085 3.79685 61.4377 3.79686 61.5709 3.79686C61.6713 3.7814 61.7716 3.76594 61.875 3.75C62.1381 3.35528 62.1566 3.25576 62.1484 2.80469C62.1476 2.70656 62.1468 2.60843 62.146 2.50733C62.1404 2.24206 62.1404 2.24206 62 2C56.5401 1.99714 51.0802 1.99494 45.6203 1.99362C44.9764 1.99346 44.3326 1.9933 43.6887 1.99314C43.5605 1.9931 43.4323 1.99307 43.3002 1.99304C41.2217 1.99249 39.1432 1.99151 37.0647 1.99036C34.9337 1.98919 32.8026 1.9885 30.6715 1.98824C29.3554 1.98807 28.0393 1.98753 26.7233 1.98651C25.8221 1.98586 24.9208 1.98565 24.0196 1.98582C23.4989 1.9859 22.9781 1.98577 22.4574 1.9851C21.9814 1.9845 21.5055 1.98446 21.0295 1.98489C20.8566 1.98494 20.6836 1.98478 20.5107 1.98439C20.2771 1.9839 20.0435 1.98423 19.81 1.98462C19.6798 1.98457 19.5496 1.98453 19.4154 1.98448C19.1298 1.9673 19.1298 1.9673 19 2.125ZM27.125 11.375C27.1093 11.5927 27.1024 11.8111 27.0989 12.0294C27.0965 12.1692 27.0941 12.309 27.0916 12.453C27.0844 13.0955 27.0782 13.738 27.0744 14.3805C27.0721 14.7193 27.0678 15.058 27.0615 15.3967C27.0532 15.8846 27.0497 16.3724 27.0473 16.8604C27.0439 17.0113 27.0404 17.1622 27.0368 17.3178C27.0384 17.9658 27.0405 18.4964 27.4302 19.0346C27.8361 19.4221 28.1968 19.4746 28.7456 19.474C28.8524 19.4695 28.9593 19.4651 29.0693 19.4605C29.1693 19.4596 29.2693 19.4587 29.3723 19.4578C29.7431 19.4532 30.1137 19.441 30.4844 19.4297C31.7296 19.4026 31.7296 19.4026 33 19.375C33 16.735 33 14.095 33 11.375C32.7097 11.2299 32.5418 11.2342 32.2187 11.2338C32.109 11.2334 31.9993 11.233 31.8863 11.2326C31.7677 11.2329 31.6491 11.2331 31.5268 11.2334C31.3447 11.2332 31.3447 11.2332 31.1589 11.233C30.902 11.233 30.645 11.2332 30.3881 11.2337C29.9934 11.2344 29.5986 11.2337 29.2038 11.2329C28.9547 11.233 28.7056 11.2332 28.4565 11.2334C28.2782 11.233 28.2782 11.233 28.0963 11.2326C27.987 11.233 27.8777 11.2334 27.7651 11.2338C27.6201 11.234 27.6201 11.234 27.4721 11.2341C27.2468 11.2259 27.2468 11.2259 27.125 11.375ZM11.75 18.875C11.6237 18.9704 11.4973 19.0658 11.3672 19.1641C9.48771 20.8836 8.35008 23.3987 8.23582 25.9399C8.23462 26.1683 8.24121 26.3968 8.24998 26.625C8.37373 26.5863 8.49748 26.5477 8.62498 26.5078C8.97894 26.4024 9.23708 26.3697 9.61717 26.3516C10.1874 26.2942 10.4796 25.9858 10.8681 25.5864C11.4579 25.1009 12.1268 25.0948 12.8594 25.0781C15.0571 24.983 16.928 24.2974 18.625 22.875C19.7314 21.953 20.4991 21.5448 21.9678 21.5806C23.0124 21.6945 23.856 22.1426 24.522 22.958C24.6101 23.0801 24.6982 23.2023 24.789 23.3281C25.1537 23.8279 25.5263 24.3134 25.9219 24.7891C26.2182 25.1477 26.4095 25.4195 26.5312 25.8672C26.7129 26.2786 26.7129 26.2786 27.105 26.3867C27.4856 26.4826 27.8627 26.562 28.25 26.625C28.1805 24.1451 27.4497 21.7401 25.75 19.875C25.6606 19.7741 25.5711 19.6733 25.479 19.5693C23.7507 17.7254 21.4069 16.593 18.8755 16.46C16.1952 16.3747 13.796 17.0985 11.75 18.875ZM19.7295 24.4873C17.8088 26.1125 15.4647 26.8646 12.9682 26.9287C12.441 26.9526 12.1151 26.9839 11.75 27.375C11.7005 27.6989 11.6827 27.9692 11.688 28.293C11.6878 28.3835 11.6876 28.4741 11.6874 28.5673C11.6876 28.7594 11.6891 28.9515 11.6917 29.1436C11.6952 29.433 11.6942 29.7222 11.6926 30.0117C11.6955 32.0407 12.1481 33.7074 13.5776 35.21C14.9498 36.5484 16.449 37.1694 18.375 37.25C20.3485 37.1599 21.8594 36.3117 23.2109 34.9219C24.3606 33.6014 24.7788 32.0211 24.8096 30.3086C24.8116 30.1991 24.8136 30.0896 24.8157 29.9768C24.8191 29.747 24.8218 29.5171 24.8238 29.2873C24.8267 29.0541 24.8318 28.8208 24.8392 28.5877C24.9422 27.0337 24.9422 27.0337 24.2773 25.6982C24.104 25.546 23.9284 25.3962 23.75 25.25C23.492 24.8965 23.2488 24.5374 23.0068 24.1729C22.5832 23.6816 22.1482 23.5215 21.5156 23.4297C20.7536 23.4629 20.2755 24.0083 19.7295 24.4873ZM26.75 28.25C26.75 29.3225 26.75 30.395 26.75 31.5C27.5197 31.2434 27.6967 31.1486 28.125 30.5C28.2715 29.9872 28.2881 29.7273 28.1015 29.2266C27.8806 28.8837 27.6942 28.6285 27.375 28.375C27.1687 28.3338 26.9625 28.2925 26.75 28.25ZM8.74998 28.625C8.44811 28.9636 8.26946 29.2983 8.22557 29.7529C8.26942 30.4262 8.512 30.7945 8.99998 31.25C9.24748 31.3325 9.49498 31.415 9.74998 31.5C9.74998 30.4275 9.74998 29.355 9.74998 28.25C9.33918 28.25 9.09643 28.4102 8.74998 28.625ZM7.87498 32.875C7.71088 33.3463 7.54683 33.8177 7.3828 34.2891C7.33615 34.423 7.2895 34.557 7.24144 34.6951C7.19672 34.8236 7.15201 34.9521 7.10594 35.0845C7.04408 35.2622 7.04408 35.2622 6.98097 35.4435C6.5964 36.5556 6.57787 37.7567 7.08494 38.8364C7.62025 39.7724 8.2635 40.5289 9.24998 41C9.33422 41.0434 9.41845 41.0867 9.50523 41.1314C10.0242 41.3493 10.3581 41.4179 10.9055 41.2523C11.3495 41.0486 11.777 40.824 12.2031 40.5859C12.3538 40.5056 12.5047 40.4256 12.6557 40.346C13.0226 40.1508 13.387 39.9522 13.75 39.75C13.9059 38.6049 13.9059 38.6049 13.5215 37.5776C13.2318 37.3633 12.9368 37.1801 12.625 37C12.289 36.6875 12.289 36.6875 12 36.375C11.826 36.201 11.826 36.201 11.6484 36.0234C11.369 35.7065 11.1959 35.3935 11.0327 35.0078C10.6567 33.9973 10.6567 33.9973 9.88328 33.3281C9.49794 33.2655 9.49794 33.2655 9.1284 33.271C8.63838 33.2438 8.31669 33.0851 7.87498 32.875ZM28.2109 33.0469C27.9183 33.2069 27.7406 33.2503 27.4018 33.2603C26.9578 33.2754 26.6557 33.3135 26.25 33.5C25.9903 33.8908 25.8096 34.2647 25.6257 34.6934C25.3505 35.3272 25.045 35.8173 24.5703 36.3203C24.5125 36.382 24.4546 36.4438 24.3951 36.5074C24.0357 36.8746 23.6607 37.1437 23.2265 37.4141C22.9405 37.596 22.9405 37.596 22.75 37.875C22.6556 38.5145 22.6832 39.1092 22.75 39.75C23.1301 39.9507 23.5104 40.1511 23.8906 40.3516C23.9976 40.408 24.1046 40.4645 24.2148 40.5227C24.4238 40.6328 24.633 40.7425 24.8425 40.8517C25.0779 40.9753 25.3112 41.1029 25.5439 41.2314C26.0861 41.4665 26.4634 41.3263 27 41.125C28.1302 40.6186 28.9772 39.7824 29.4922 38.6484C30.0184 37.0698 29.7 35.8353 29.0914 34.3563C28.9008 33.8739 28.7619 33.3748 28.625 32.875C28.4618 32.8644 28.4618 32.8644 28.2109 33.0469ZM38.874 38.2515C37.9925 39.2421 37.5735 40.7031 37.375 42C37.4162 42.1238 37.4575 42.2475 37.5 42.375C37.7737 42.504 37.7737 42.504 38.1015 42.5859C38.2652 42.6331 38.2652 42.6331 38.4321 42.6812C38.7772 42.7676 38.7772 42.7676 39.25 42.75C39.2882 42.6591 39.3264 42.5682 39.3657 42.4746C39.7688 41.589 40.2229 40.9412 40.902 40.2513C41.3883 39.7568 41.6595 39.4057 41.6719 38.7031C41.6597 38.1338 41.4933 37.817 41.125 37.375C41.0605 37.2977 40.9961 37.2203 40.9297 37.1406C40.262 36.6181 39.3143 37.8154 38.874 38.2515ZM15.75 38.875C15.7363 39.0157 15.7226 39.1563 15.7085 39.3013C15.6146 40.2208 15.513 41.1151 15.2969 42.0156C15.0123 43.324 15.0927 44.6684 15.125 46C17.0749 46.5951 19.0293 46.7952 21 46.125C21.3938 45.9257 21.3938 45.9257 21.4255 45.6339C21.4267 45.5359 21.4279 45.4379 21.4292 45.3369C21.4306 45.2265 21.4319 45.116 21.4334 45.0022C21.4315 44.8232 21.4315 44.8232 21.4297 44.6406C21.4292 44.5178 21.4287 44.3949 21.4282 44.2683C21.41 43.3177 21.2721 42.4284 21.0628 41.5031C20.8646 40.6258 20.7798 39.7755 20.75 38.875C20.5489 38.9055 20.5489 38.9055 20.3437 38.9365C19.6464 39.0234 18.9517 39.0182 18.25 39.0156C18.0547 39.0164 18.0547 39.0164 17.8555 39.0171C17.1417 39.0162 16.4558 38.9819 15.75 38.875ZM23.25 42.25C23.2519 42.3525 23.2539 42.4549 23.2559 42.5605C23.3207 46.458 23.3207 46.458 22.875 48.125C22.8495 48.2211 22.824 48.3172 22.7977 48.4163C22.442 49.7241 22.0073 50.9992 21.5121 52.2607C21.418 52.5046 21.3331 52.7521 21.25 53C21.2912 53.0825 21.3325 53.165 21.375 53.25C22.4114 52.0901 23.3831 50.9175 24.25 49.625C24.3289 49.5074 24.4079 49.3898 24.4892 49.2686C24.8543 48.6959 25.1654 48.2009 25.125 47.5C24.8399 47.11 24.8399 47.11 24.5 46.75C24.191 46.118 24.1798 45.5419 24.375 44.875C24.6366 44.3548 24.9334 43.8634 25.25 43.375C24.9161 42.9737 24.5097 42.8113 24.039 42.6016C23.8916 42.5353 23.7442 42.4691 23.5923 42.4009C23.4793 42.3511 23.3664 42.3013 23.25 42.25ZM12.1797 42.75C12.0908 42.7977 12.0019 42.8454 11.9104 42.8945C11.6901 43.0128 11.47 43.1314 11.25 43.25C11.4014 43.6577 11.5701 43.9968 11.8203 44.3516C12.1561 44.8827 12.25 45.2431 12.25 45.875C12.1294 46.4036 11.9523 46.7869 11.5937 47.1953C11.3333 47.4917 11.3333 47.4917 11.3926 47.8999C11.5114 48.4257 11.7165 48.8305 12 49.2813C12.0755 49.4039 12.0755 49.4039 12.1526 49.529C12.6253 50.28 13.1685 50.9553 13.75 51.625C13.8757 51.7734 14.0012 51.922 14.1264 52.0708C14.4582 52.4648 14.7913 52.8577 15.125 53.25C15.2806 53.0094 15.2806 53.0094 15.1843 52.7723C15.1465 52.6804 15.1087 52.5884 15.0698 52.4937C15.0281 52.3895 14.9864 52.2853 14.9434 52.178C14.8976 52.0651 14.8518 51.9522 14.8047 51.8359C14.4376 50.9012 14.1055 49.9654 13.8281 49C13.7984 48.8988 13.7686 48.7975 13.738 48.6932C13.3098 47.1632 13.2148 45.6644 13.2344 44.0859C13.2356 43.9067 13.2368 43.7274 13.2378 43.5481C13.2405 43.1154 13.2448 42.6827 13.25 42.25C12.9066 42.25 12.4869 42.5842 12.1797 42.75ZM36.25 44.125C36.0552 44.6934 35.8606 45.2618 35.6662 45.8303C35.5918 46.0479 35.5172 46.2654 35.4426 46.483C34.9401 47.9487 34.4435 49.4162 33.954 50.8864C33.7286 51.5635 33.5022 52.2403 33.2756 52.9171C33.1136 53.4015 32.9521 53.8861 32.7919 54.3711C32.6387 54.8347 32.4842 55.2978 32.3286 55.7606C32.2709 55.9333 32.2136 56.1061 32.157 56.2791C32.0787 56.5179 31.9983 56.7561 31.9179 56.9943C31.8732 57.1287 31.8285 57.2632 31.7825 57.4017C31.613 57.7765 31.4407 57.989 31.125 58.25C30.7511 58.3001 30.5012 58.216 30.125 58.125C29.8342 57.6888 29.8581 57.4757 29.9284 56.9691C30.0591 56.341 30.2716 55.7408 30.4838 55.1362C30.5695 54.8917 30.6536 54.6466 30.7373 54.4013C30.9751 53.705 31.2156 53.0096 31.4576 52.3147C31.6062 51.8877 31.7528 51.46 31.8981 51.0319C31.9537 50.8695 32.0101 50.7075 32.0672 50.5457C32.147 50.32 32.224 50.0933 32.3009 49.8666C32.3454 49.7381 32.39 49.6097 32.436 49.4773C32.5122 49.0578 32.4482 48.8721 32.25 48.5C31.9071 48.0537 31.5166 47.6537 31.125 47.25C31.032 47.1538 30.939 47.0576 30.8432 46.9585C29.7149 45.8683 28.2681 45.0316 26.75 44.625C26.4406 45.1819 26.4406 45.1819 26.125 45.75C26.223 45.8634 26.3209 45.9769 26.4219 46.0938C26.9498 46.7051 27.0655 47.1923 27.0454 47.9941C26.8237 49.8538 25.2947 51.6153 24.125 53C24.0726 53.0629 24.0201 53.1257 23.9661 53.1905C22.6639 54.7506 21.2762 56.2309 19.8437 57.6719C19.7766 57.7396 19.7095 57.8073 19.6404 57.877C18.9144 58.5999 18.9144 58.5999 18.289 58.6953C17.8338 58.6818 17.6276 58.5668 17.2949 58.2607C17.2083 58.1813 17.1216 58.1018 17.0324 58.0199C16.5121 57.5226 16 57.0179 15.4922 56.5078C15.3848 56.4009 15.2774 56.294 15.1667 56.1838C14.5433 55.5595 13.9476 54.9211 13.375 54.25C13.264 54.1237 13.1528 53.9976 13.0415 53.8716C11.8508 52.4963 10.7448 51.054 9.91405 49.4297C9.87317 49.3509 9.83229 49.2722 9.79018 49.191C9.44467 48.4796 9.31792 47.831 9.45311 47.0469C9.6041 46.6763 9.70243 46.5166 9.96092 46.2344C10.2843 45.9093 10.2843 45.9093 10.25 45.5469C10.1196 45.2372 9.96741 45.0052 9.74998 44.75C9.07358 44.8117 8.55725 44.9897 7.96092 45.3203C7.87903 45.3651 7.79713 45.41 7.71275 45.4562C6.99481 45.8595 6.36014 46.3206 5.74998 46.875C5.63703 46.9764 5.52408 47.0777 5.4077 47.1821C3.01353 49.4438 1.96261 52.4218 1.86611 55.674C1.85121 56.3647 1.84636 57.0552 1.84495 57.746C1.84373 58.1113 1.83983 58.4765 1.83592 58.8418C1.83511 59.0765 1.83445 59.3112 1.83397 59.5459C1.83242 59.6539 1.83088 59.7618 1.82929 59.873C1.83214 60.6507 1.92128 61.2734 2.47423 61.8649C2.84387 62.046 3.12627 62.0424 3.53709 62.0366C3.76308 62.0348 3.76308 62.0348 3.99364 62.033C4.15042 62.0298 4.3072 62.0267 4.46873 62.0234C4.62745 62.0217 4.78617 62.0201 4.94969 62.0183C5.34151 62.0139 5.73322 62.0077 6.12498 62C6.12615 61.8701 6.12732 61.7402 6.12852 61.6063C6.13351 61.1236 6.14173 60.6409 6.15092 60.1583C6.15445 59.9495 6.1571 59.7407 6.15886 59.5319C6.16154 59.2315 6.16737 58.9312 6.17381 58.6309C6.17397 58.5377 6.17412 58.4446 6.17428 58.3487C6.18664 57.9095 6.2175 57.6673 6.48857 57.3143C6.74998 57.125 6.74998 57.125 7.00877 57.0903C7.25812 57.1316 7.50433 57.1906 7.74998 57.25C8.05888 57.7133 8.04347 58.0815 8.05174 58.6187C8.05416 58.7152 8.05658 58.8118 8.05908 58.9113C8.06654 59.2195 8.07235 59.5277 8.07811 59.8359C8.08288 60.045 8.08776 60.2541 8.09276 60.4631C8.10476 60.9754 8.11526 61.4877 8.12498 62C11.5629 62.0117 15.0008 62.0205 18.4387 62.0259C20.035 62.0285 21.6312 62.032 23.2275 62.0377C24.6189 62.0427 26.0102 62.0459 27.4015 62.047C28.1382 62.0477 28.8749 62.0492 29.6116 62.0529C30.3051 62.0563 30.9987 62.0573 31.6922 62.0566C31.9466 62.0567 32.201 62.0577 32.4553 62.0596C32.8032 62.0621 33.1509 62.0615 33.4987 62.0601C33.649 62.0623 33.649 62.0623 33.8023 62.0645C34.6423 62.0557 35.3072 61.8092 35.914 61.2188C36.4504 60.3446 36.6136 59.3958 36.7875 58.4C36.8266 58.1827 36.8266 58.1827 36.8665 57.9611C36.9518 57.485 37.0358 57.0086 37.1196 56.5322C37.1635 56.2845 37.2076 56.0369 37.2516 55.7892C37.3898 55.0123 37.527 54.2352 37.6635 53.458C37.8045 52.6559 37.9471 51.8542 38.0907 51.0526C38.214 50.3635 38.3362 49.6742 38.4575 48.9847C38.53 48.5732 38.6028 48.1619 38.6767 47.7507C38.7586 47.2933 38.8387 46.8357 38.9184 46.378C38.9432 46.2414 38.9681 46.1047 38.9937 45.964C39.0149 45.8399 39.0361 45.7159 39.0579 45.5881C39.077 45.4799 39.0961 45.3717 39.1158 45.2603C39.1188 45.1744 39.1219 45.0885 39.125 45C38.855 44.7301 38.7305 44.6875 38.3716 44.5889C38.2726 44.5615 38.1735 44.5341 38.0715 44.5059C37.968 44.4781 37.8645 44.4504 37.7578 44.4219C37.6548 44.3932 37.5517 44.3645 37.4455 44.335C36.8565 44.1734 36.8565 44.1734 36.25 44.125ZM15.625 48.25C16.3094 50.5275 17.1734 52.696 18.125 54.875C18.2075 54.875 18.29 54.875 18.375 54.875C19.4994 52.2983 19.4994 52.2983 20.4765 49.6641C20.506 49.5761 20.5354 49.4881 20.5657 49.3975C20.6959 48.9889 20.75 48.685 20.75 48.25C20.6375 48.2633 20.6375 48.2633 20.5227 48.2768C19.7416 48.3627 18.973 48.3941 18.1875 48.3906C18.0239 48.3914 18.0239 48.3914 17.8569 48.3921C17.1062 48.391 16.3704 48.3379 15.625 48.25Z" fill="#101B2C"/>
<path d="M40.2466 14.2961C40.4115 14.2952 40.5764 14.2943 40.7463 14.2934C41.1977 14.2911 41.6491 14.2927 42.1006 14.2952C42.5734 14.2972 43.0462 14.2961 43.5191 14.2955C44.313 14.2949 45.107 14.2969 45.901 14.3004C46.8185 14.3044 47.7359 14.3044 48.6533 14.3022C49.5365 14.3002 50.4197 14.3011 51.3029 14.3032C51.6785 14.3041 52.0541 14.3039 52.4297 14.303C52.9543 14.3019 53.4788 14.3049 54.0034 14.3083C54.1591 14.3075 54.3149 14.3067 54.4753 14.3058C54.6183 14.3074 54.7613 14.309 54.9086 14.3107C55.0326 14.311 55.1566 14.3114 55.2843 14.3117C55.7201 14.3927 55.9332 14.5713 56.25 14.875C56.333 15.125 56.333 15.125 56.3281 15.375C56.3297 15.4575 56.3313 15.54 56.333 15.625C56.2041 16.0132 55.9582 16.1494 55.625 16.375C55.2843 16.4383 55.2843 16.4383 54.9086 16.4393C54.7656 16.4409 54.6226 16.4425 54.4753 16.4441C54.2417 16.4429 54.2417 16.4429 54.0034 16.4417C53.8385 16.4427 53.6736 16.4438 53.5037 16.4449C53.0523 16.4477 52.6009 16.4474 52.1494 16.4463C51.7723 16.4456 51.3952 16.4465 51.018 16.4475C50.1283 16.4496 49.2387 16.4491 48.349 16.447C47.4315 16.4449 46.5141 16.4469 45.5966 16.4509C44.8084 16.4543 44.0202 16.4552 43.2319 16.4541C42.7614 16.4535 42.2908 16.4538 41.8203 16.4564C41.2957 16.4591 40.7712 16.4567 40.2466 16.4539C40.0908 16.4553 39.9351 16.4568 39.7746 16.4583C38.6037 16.4454 38.6037 16.4454 38.216 16.081C37.9475 15.6696 37.8996 15.4816 38 15C38.5498 14.1576 39.3162 14.2874 40.2466 14.2961Z" fill="#101B2C"/>
<path d="M39.2116 9.31152C39.3567 9.31011 39.5019 9.3087 39.6514 9.30725C39.8101 9.30826 39.9688 9.30928 40.1323 9.31032C40.3015 9.30964 40.4707 9.30875 40.64 9.30766C41.0992 9.30538 41.5583 9.30627 42.0175 9.30785C42.4981 9.30912 42.9786 9.30794 43.4592 9.30716C44.2662 9.30625 45.0732 9.30745 45.8802 9.30983C46.8133 9.31255 47.7462 9.31167 48.6793 9.30892C49.4803 9.30665 50.2814 9.30633 51.0825 9.30764C51.5609 9.30842 52.0393 9.30852 52.5178 9.30687C52.9676 9.30542 53.4174 9.30643 53.8672 9.30932C54.111 9.31029 54.3548 9.30881 54.5986 9.30725C54.8163 9.30937 54.8163 9.30937 55.0384 9.31152C55.1645 9.31171 55.2906 9.3119 55.4205 9.3121C55.8428 9.39274 55.9911 9.53713 56.25 9.87502C56.3125 10.3125 56.3125 10.3125 56.25 10.75C55.9911 11.0879 55.8428 11.2323 55.4205 11.3129C55.2944 11.3131 55.1683 11.3133 55.0384 11.3135C54.8207 11.3156 54.8207 11.3156 54.5986 11.3178C54.3606 11.3163 54.3606 11.3163 54.1177 11.3147C53.9485 11.3154 53.7793 11.3163 53.61 11.3174C53.1508 11.3196 52.6917 11.3188 52.2325 11.3172C51.7519 11.3159 51.2714 11.3171 50.7908 11.3179C49.9838 11.3188 49.1768 11.3176 48.3698 11.3152C47.4367 11.3125 46.5038 11.3134 45.5707 11.3161C44.7697 11.3184 43.9686 11.3187 43.1675 11.3174C42.6891 11.3166 42.2107 11.3165 41.7322 11.3182C41.2824 11.3196 40.8326 11.3186 40.3828 11.3157C40.139 11.3147 39.8952 11.3162 39.6514 11.3178C39.5063 11.3164 39.3611 11.315 39.2116 11.3135C39.0855 11.3133 38.9594 11.3131 38.8295 11.3129C38.4072 11.2323 38.2589 11.0879 38 10.75C37.9375 10.3125 37.9375 10.3125 38 9.87502C38.367 9.39599 38.6177 9.31241 39.2116 9.31152Z" fill="#101B2C"/>
<path d="M39.447 19.3568C39.5625 19.356 39.6781 19.3552 39.7972 19.3544C39.9218 19.3543 40.0464 19.3541 40.1748 19.354C40.3032 19.3536 40.4316 19.3531 40.5639 19.3527C40.8356 19.3521 41.1073 19.3518 41.379 19.3518C41.7944 19.3515 42.2097 19.3493 42.625 19.3469C42.889 19.3465 43.153 19.3463 43.417 19.3462C43.6032 19.3448 43.6032 19.3448 43.7931 19.3434C44.9112 19.3471 44.9112 19.3471 45.375 19.625C45.685 20.09 45.6829 20.3247 45.625 20.875C45.3736 21.1999 45.2234 21.3547 44.8167 21.4385C44.7017 21.4389 44.5866 21.4393 44.468 21.4397C44.2715 21.442 44.2715 21.442 44.0711 21.4444C43.8599 21.4429 43.8599 21.4429 43.6445 21.4414C43.4268 21.4421 43.4268 21.4421 43.2047 21.4428C42.8979 21.4432 42.591 21.4422 42.2842 21.4402C41.8142 21.4375 41.3445 21.4401 40.8745 21.4433C40.5765 21.443 40.2785 21.4424 39.9805 21.4414C39.8397 21.4424 39.6989 21.4434 39.5539 21.4444C39.4229 21.4429 39.2919 21.4413 39.157 21.4397C39.0419 21.4393 38.9268 21.4389 38.8083 21.4385C38.4019 21.3548 38.2522 21.1988 38 20.875C37.9375 20.4375 37.9375 20.4375 38 20C38.4078 19.4656 38.7964 19.3599 39.447 19.3568Z" fill="#101B2C"/>
</g>
<defs>
<clipPath id="clip0_56_62">
<rect width="64" height="64" fill="white"/>
</clipPath>
</defs>
</svg>
